<svg aria-hidden="true" style="position: absolute; width: 0; height: 0; overflow: hidden;" version="1.1" xmlns="http://www.w3.org/2000/svg" xmlns:xlink="http://www.w3.org/1999/xlink">
<defs>
<symbol id="icon-calender" viewBox="0 0 32 32">
<title>calender</title>
<path d="M12 14.667h-2.667v2.667h2.667zM17.333 14.667h-2.667v2.667h2.667zM22.667 14.667h-2.667v2.667h2.667zM25.333 5.334h-1.332v-2.667h-2.667v2.667h-10.666v-2.667h-2.667v2.667h-1.333c-1.465 0.001-2.652 1.189-2.652 2.655 0 0.004 0 0.009 0 0.013v-0.001l-0.014 18.666c0 0.001 0 0.001 0 0.002 0 1.472 1.194 2.666 2.666 2.666 0 0 0.001 0 0.001 0h18.666c1.471-0.004 2.662-1.196 2.667-2.666v-18.668c-0.004-1.471-1.196-2.662-2.666-2.667h-0zM25.333 26.667h-18.666v-14.667h18.666z"></path>
</symbol>
<symbol id="icon-clear" viewBox="0 0 32 32">
<title>clear</title>
<path d="M32 16c0 8.837-7.163 16-16 16s-16-7.163-16-16c0-8.837 7.163-16 16-16s16 7.163 16 16z"></path>
</symbol>
<symbol id="icon-cold" viewBox="0 0 32 32">
<title>cold</title>
<path d="M25 4c-0.002 0-0.004 0-0.006 0-0.346 0-0.686 0.025-1.019 0.074l0.038-0.005c-1.826-2.479-4.734-4.070-8.013-4.070s-6.187 1.591-7.994 4.043l-0.019 0.027c-0.295-0.045-0.635-0.070-0.981-0.070-0.002 0-0.004 0-0.006 0h0c-3.866 0-7 3.134-7 7s3.134 7 7 7v0c0.002 0 0.003 0 0.005 0 0.891 0 1.742-0.168 2.524-0.474l-0.047 0.016c1.729 1.526 4.015 2.458 6.518 2.458s4.789-0.932 6.529-2.467l-0.011 0.009c0.735 0.29 1.586 0.458 2.477 0.458 0.002 0 0.004 0 0.005 0h-0c3.866 0 7-3.134 7-7s-3.134-7-7-7v0zM25 16c-0.002 0-0.004 0-0.006 0-0.633 0-1.238-0.119-1.793-0.337l0.034 0.012-1.125-0.432-0.906 0.792c-1.379 1.221-3.204 1.966-5.203 1.966s-3.823-0.745-5.211-1.973l0.008 0.007-0.906-0.792-1.125 0.432c-0.523 0.206-1.128 0.326-1.761 0.326-0.002 0-0.003 0-0.005 0h0c-0.001 0-0.001 0-0.002 0-2.761 0-5-2.239-5-5s2.239-5 5-5c0.249 0 0.493 0.018 0.732 0.053l-0.027-0.003 1.185 0.172 0.71-0.966c1.458-1.982 3.781-3.255 6.402-3.255s4.944 1.272 6.386 3.233l0.015 0.022 0.711 0.967 1.187-0.172c0.211-0.032 0.454-0.050 0.701-0.050h0c2.761 0 5 2.239 5 5s-2.239 5-5 5v0zM6 20c-0 0-0 0-0 0-1.105 0-2 0.895-2 2s0.895 2 2 2c1.105 0 2-0.895 2-2 0-0 0-0 0-0v0c0-0 0-0.001 0-0.001 0-1.104-0.895-1.999-1.999-1.999-0 0-0.001 0-0.001 0h0zM16 22c-1.105 0-2 0.895-2 2s0.895 2 2 2c1.105 0 2-0.895 2-2v0c0-0 0-0 0-0.001 0-1.104-0.895-2-2-2-0 0-0 0-0.001 0h0zM26 20c-0 0-0 0-0 0-1.105 0-2 0.895-2 2s0.895 2 2 2c1.105 0 2-0.895 2-2 0-0 0-0 0-0v0c0-0 0-0 0-0 0-1.104-0.895-2-2-2-0 0-0 0-0 0h0zM22 28c-1.105 0-2 0.895-2 2s0.895 2 2 2c1.105 0 2-0.895 2-2v0c0-0 0-0 0-0.001 0-1.104-0.895-2-2-2-0 0-0.001 0-0.001 0h0zM10 28c-1.105 0-2 0.895-2 2s0.895 2 2 2c1.105 0 2-0.895 2-2v0c0-0 0-0 0-0.001 0-1.104-0.895-2-1.999-2-0 0-0 0-0.001 0h0z"></path>
</symbol>
<symbol id="icon-logo-weather-now" viewBox="0 0 57 32">
<title>logo-weather-now</title>
<path d="M11.722 22.43h-1.306l-2.724-8.202q-0.037-0.12-0.071-0.255l-0.071-0.285q-0.037 0.15-0.075 0.285t-0.075 0.255l-2.739 8.202h-1.306l-3.354-10.754h1.208c0.006-0 0.012-0 0.019-0 0.115 0 0.222 0.037 0.309 0.099l-0.002-0.001c0.082 0.059 0.143 0.145 0.168 0.245l0.001 0.003 2.221 7.474q0.053 0.203 0.101 0.435t0.094 0.495q0.053-0.263 0.109-0.499t0.124-0.431l2.529-7.474c0.038-0.096 0.098-0.176 0.175-0.235l0.001-0.001c0.083-0.068 0.189-0.109 0.306-0.109 0.005 0 0.009 0 0.014 0h0.42c0.007-0 0.015-0.001 0.023-0.001 0.11 0 0.212 0.037 0.293 0.099l-0.001-0.001c0.079 0.065 0.141 0.148 0.179 0.244l0.001 0.004 2.521 7.474q0.067 0.195 0.124 0.42t0.109 0.473q0.037-0.248 0.082-0.473t0.098-0.42l5.41-19.053c0.030-0.099 0.090-0.181 0.168-0.239l0.001-0.001c0.083-0.066 0.189-0.105 0.305-0.105 0.005 0 0.010 0 0.015 0l-0.001-0zM20.607 17.799c0-0.009 0-0.019 0-0.030 0-0.294-0.048-0.576-0.137-0.84l0.005 0.019c-0.086-0.258-0.217-0.481-0.384-0.67l0.002 0.002c-0.166-0.185-0.37-0.333-0.6-0.431l-0.011-0.004c-0.231-0.097-0.5-0.154-0.783-0.154-0.012 0-0.025 0-0.037 0l0.002-0q-0.96 0-1.52 0.559t-0.694 1.55zM21.687 21.364c-0.169 0.203-0.365 0.375-0.583 0.515l-0.010 0.006c-0.212 0.138-0.456 0.261-0.713 0.356l-0.026 0.008c-0.23 0.087-0.504 0.161-0.786 0.21l-0.028 0.004c-0.25 0.045-0.538 0.071-0.833 0.071h-0c-0.012 0-0.027 0-0.041 0-0.508 0-0.993-0.098-1.437-0.276l0.026 0.009c-0.451-0.182-0.834-0.447-1.147-0.779l-0.002-0.002c-0.327-0.355-0.584-0.779-0.747-1.247l-0.008-0.025c-0.172-0.493-0.271-1.061-0.271-1.652 0-0.031 0-0.062 0.001-0.094l-0 0.005c-0-0.011-0-0.023-0-0.036 0-0.519 0.089-1.018 0.254-1.481l-0.010 0.031c0.162-0.463 0.401-0.861 0.705-1.2l-0.003 0.003c0.306-0.335 0.679-0.604 1.097-0.787l0.021-0.008c0.422-0.183 0.913-0.289 1.428-0.289 0.020 0 0.040 0 0.060 0.001l-0.003-0c0.010-0 0.022-0 0.034-0 0.443 0 0.866 0.084 1.254 0.237l-0.023-0.008c0.393 0.155 0.728 0.379 1.005 0.66l0 0c0.285 0.296 0.511 0.651 0.657 1.045l0.007 0.021c0.152 0.41 0.241 0.883 0.241 1.377 0 0.024-0 0.048-0.001 0.071l0-0.004c0.002 0.023 0.003 0.050 0.003 0.077 0 0.124-0.026 0.242-0.073 0.349l0.002-0.006c-0.052 0.066-0.131 0.107-0.221 0.107-0.012 0-0.024-0.001-0.036-0.002l0.001 0h-5.081c0.006 0.45 0.079 0.88 0.208 1.285l-0.009-0.031c0.109 0.343 0.277 0.64 0.494 0.893l-0.003-0.003c0.202 0.23 0.453 0.411 0.737 0.528l0.013 0.005c0.278 0.112 0.6 0.177 0.938 0.177 0.013 0 0.027-0 0.040-0l-0.002 0c0.017 0 0.037 0.001 0.057 0.001 0.289 0 0.567-0.043 0.83-0.122l-0.020 0.005c0.244-0.076 0.452-0.161 0.65-0.262l-0.023 0.011c0.175-0.089 0.319-0.172 0.457-0.263l-0.018 0.011c0.084-0.064 0.188-0.107 0.302-0.116l0.002-0c0.004-0 0.008-0 0.013-0 0.1 0 0.189 0.050 0.242 0.127l0.001 0.001zM27.563 19.008c-0.565 0.013-1.108 0.065-1.638 0.156l0.066-0.009c-0.397 0.064-0.753 0.169-1.087 0.315l0.029-0.011c-0.239 0.098-0.438 0.25-0.591 0.44l-0.002 0.003c-0.115 0.155-0.184 0.351-0.184 0.563 0 0.003 0 0.006 0 0.009v-0c-0 0.009-0 0.020-0 0.031 0 0.176 0.036 0.343 0.101 0.495l-0.003-0.008c0.062 0.142 0.153 0.261 0.265 0.355l0.002 0.001c0.112 0.091 0.245 0.161 0.39 0.201l0.008 0.002c0.143 0.041 0.308 0.064 0.478 0.064 0.005 0 0.009-0 0.014-0h-0.001c0.008 0 0.016 0 0.025 0 0.22 0 0.434-0.026 0.639-0.075l-0.019 0.004c0.21-0.051 0.393-0.122 0.565-0.213l-0.013 0.006c0.189-0.1 0.351-0.207 0.501-0.327l-0.006 0.005c0.168-0.135 0.319-0.275 0.459-0.425l0.002-0.003zM23.248 15.901c0.381-0.376 0.832-0.682 1.331-0.897l0.028-0.011c0.462-0.19 0.997-0.301 1.559-0.301 0.019 0 0.038 0 0.057 0l-0.003-0c0.016-0 0.034-0 0.052-0 0.39 0 0.761 0.077 1.1 0.218l-0.019-0.007c0.328 0.138 0.606 0.336 0.831 0.583l0.002 0.002c0.225 0.253 0.399 0.557 0.506 0.89l0.005 0.018c0.11 0.338 0.173 0.727 0.173 1.13 0 0.014-0 0.029-0 0.043l0-0.002v4.863h-0.593c-0.010 0.001-0.022 0.001-0.033 0.001-0.097 0-0.189-0.024-0.27-0.066l0.003 0.002c-0.082-0.061-0.141-0.148-0.165-0.248l-0.001-0.003-0.15-0.72c-0.178 0.166-0.369 0.327-0.567 0.478l-0.018 0.013c-0.174 0.132-0.371 0.252-0.58 0.352l-0.020 0.009c-0.192 0.091-0.416 0.169-0.65 0.221l-0.022 0.004c-0.227 0.050-0.488 0.079-0.756 0.079-0.013 0-0.025-0-0.038-0h0.002c-0.006 0-0.012 0-0.019 0-0.291 0-0.571-0.045-0.834-0.129l0.019 0.005c-0.262-0.082-0.488-0.209-0.682-0.374l0.003 0.002c-0.194-0.17-0.349-0.379-0.453-0.616l-0.004-0.011c-0.107-0.249-0.169-0.54-0.169-0.845 0-0.018 0-0.037 0.001-0.055l-0 0.003c0.002-0.321 0.094-0.62 0.252-0.874l-0.004 0.007c0.202-0.311 0.473-0.561 0.791-0.733l0.011-0.006c0.418-0.232 0.902-0.414 1.414-0.523l0.034-0.006c0.656-0.145 1.412-0.23 2.187-0.236l0.004-0v-0.593q0-0.886-0.383-1.34t-1.118-0.454c-0.019-0.001-0.042-0.001-0.065-0.001-0.273 0-0.536 0.046-0.781 0.13l0.017-0.005c-0.222 0.081-0.412 0.174-0.591 0.285l0.013-0.008q-0.244 0.154-0.42 0.278c-0.096 0.074-0.217 0.12-0.348 0.124l-0.001 0c-0.003 0-0.006 0-0.010 0-0.084 0-0.161-0.027-0.224-0.072l0.001 0.001c-0.066-0.048-0.12-0.107-0.164-0.174l-0.002-0.003zM33.139 22.55q-0.901 0-1.384-0.503t-0.484-1.448v-4.653h-0.916c-0.003 0-0.006 0-0.009 0-0.074 0-0.142-0.027-0.194-0.072l0 0c-0.052-0.050-0.083-0.121-0.083-0.198 0-0.008 0-0.016 0.001-0.024l-0 0.001v-0.533l1.246-0.158 0.308-2.349c0.013-0.073 0.050-0.137 0.101-0.184l0-0c0.051-0.044 0.119-0.072 0.193-0.072 0.005 0 0.009 0 0.014 0l-0.001-0h0.675v2.619h2.199v0.968h-2.199v4.563q0 0.48 0.233 0.713c0.147 0.144 0.348 0.233 0.57 0.233 0.011 0 0.022-0 0.032-0.001l-0.002 0c0.007 0 0.015 0 0.023 0 0.122 0 0.239-0.021 0.348-0.058l-0.007 0.002c0.103-0.037 0.191-0.079 0.274-0.128l-0.007 0.004q0.113-0.067 0.191-0.124c0.038-0.031 0.086-0.052 0.138-0.056l0.001-0c0.083 0.007 0.152 0.056 0.187 0.126l0.001 0.001 0.39 0.638c-0.233 0.215-0.51 0.387-0.816 0.501l-0.017 0.006c-0.297 0.116-0.641 0.183-1.001 0.183-0.002 0-0.003 0-0.005 0h0zM37.529 15.841c0.306-0.328 0.663-0.604 1.059-0.815l0.022-0.011c0.381-0.194 0.83-0.308 1.307-0.308 0.021 0 0.041 0 0.062 0.001l-0.003-0c0.016-0 0.035-0.001 0.054-0.001 0.377 0 0.737 0.076 1.064 0.214l-0.018-0.007c0.316 0.136 0.582 0.335 0.793 0.582l0.003 0.003c0.213 0.257 0.379 0.561 0.479 0.894l0.005 0.018c0.105 0.339 0.165 0.729 0.165 1.134 0 0.016-0 0.031-0 0.047l0-0.002v4.84h-1.343v-4.84q0-0.863-0.394-1.34t-1.197-0.477c-0.003-0-0.008-0-0.012-0-0.402 0-0.78 0.106-1.106 0.291l0.011-0.006c-0.368 0.21-0.681 0.468-0.946 0.769l-0.004 0.004v5.598h-1.343v-11.053h1.343zM49.648 17.8c0-0.009 0-0.019 0-0.030 0-0.294-0.048-0.576-0.137-0.84l0.005 0.019c-0.086-0.258-0.217-0.481-0.384-0.67l0.002 0.002c-0.166-0.185-0.37-0.333-0.6-0.431l-0.011-0.004c-0.231-0.097-0.5-0.154-0.783-0.154-0.012 0-0.025 0-0.037 0l0.002-0q-0.961 0-1.52 0.559t-0.694 1.55zM50.729 21.364c-0.169 0.203-0.365 0.375-0.583 0.515l-0.010 0.006c-0.212 0.138-0.456 0.261-0.713 0.356l-0.026 0.008c-0.23 0.087-0.504 0.161-0.786 0.21l-0.028 0.004c-0.25 0.045-0.538 0.071-0.833 0.071h-0c-0.012 0-0.027 0-0.041 0-0.508 0-0.993-0.098-1.437-0.276l0.026 0.009c-0.451-0.182-0.834-0.447-1.147-0.779l-0.002-0.002c-0.327-0.355-0.584-0.779-0.747-1.247l-0.008-0.025c-0.172-0.493-0.271-1.061-0.271-1.652 0-0.031 0-0.063 0.001-0.094l-0 0.005c-0-0.011-0-0.023-0-0.036 0-0.519 0.089-1.018 0.254-1.481l-0.010 0.031c0.162-0.463 0.401-0.861 0.705-1.2l-0.003 0.003c0.306-0.335 0.679-0.604 1.097-0.787l0.021-0.008c0.422-0.183 0.913-0.289 1.428-0.289 0.020 0 0.040 0 0.060 0.001l-0.003-0c0.010-0 0.022-0 0.034-0 0.443 0 0.866 0.084 1.254 0.237l-0.023-0.008c0.393 0.155 0.728 0.379 1.005 0.66l0 0c0.285 0.296 0.511 0.651 0.657 1.045l0.007 0.021c0.152 0.41 0.241 0.883 0.241 1.377 0 0.024-0 0.048-0.001 0.071l0-0.004c0.002 0.023 0.003 0.050 0.003 0.077 0 0.124-0.026 0.242-0.073 0.349l0.002-0.006c-0.052 0.066-0.131 0.107-0.221 0.107-0.012 0-0.024-0.001-0.036-0.002l0.001 0h-5.081c0.007 0.45 0.079 0.88 0.208 1.285l-0.009-0.031c0.109 0.343 0.277 0.64 0.494 0.893l-0.003-0.003c0.202 0.23 0.453 0.411 0.737 0.528l0.013 0.005c0.278 0.112 0.6 0.177 0.938 0.177 0.013 0 0.027-0 0.040-0l-0.002 0c0.017 0 0.037 0.001 0.057 0.001 0.289 0 0.567-0.043 0.83-0.122l-0.020 0.005c0.244-0.076 0.452-0.161 0.65-0.262l-0.023 0.011c0.175-0.089 0.319-0.172 0.457-0.263l-0.018 0.011c0.084-0.064 0.188-0.107 0.302-0.116l0.002-0c0.004-0 0.008-0 0.013-0 0.1 0 0.189 0.050 0.242 0.127l0.001 0.001zM53.753 16.351c0.211-0.482 0.511-0.889 0.882-1.217l0.004-0.003c0.331-0.274 0.76-0.44 1.228-0.44 0.019 0 0.039 0 0.058 0.001l-0.003-0c0.002 0 0.005 0 0.007 0 0.161 0 0.318 0.019 0.468 0.055l-0.014-0.003c0.149 0.035 0.281 0.092 0.399 0.168l-0.005-0.003-0.098 0.998c-0.014 0.106-0.104 0.188-0.213 0.188-0.004 0-0.008-0-0.012-0l0.001 0c-0.112-0.005-0.217-0.021-0.318-0.047l0.011 0.002c-0.13-0.029-0.28-0.045-0.434-0.045-0.008 0-0.017 0-0.025 0h0.001c-0.009-0-0.020-0-0.030-0-0.219 0-0.429 0.039-0.624 0.109l0.013-0.004c-0.195 0.074-0.362 0.179-0.504 0.312l0.001-0.001c-0.154 0.147-0.286 0.315-0.392 0.5l-0.006 0.011c-0.114 0.196-0.222 0.425-0.309 0.664l-0.010 0.030v4.803h-1.343v-7.602h0.765c0.014-0.002 0.030-0.003 0.046-0.003 0.096 0 0.184 0.032 0.255 0.086l-0.001-0.001c0.064 0.078 0.105 0.176 0.112 0.284l0 0.002z"></path>
<path d="M14.225 5.211c0 2.878-2.333 5.211-5.211 5.211s-5.211-2.333-5.211-5.211c0-2.878 2.333-5.211 5.211-5.211s5.211 2.333 5.211 5.211z"></path>
<path d="M42.797 24.856v7.079h-0.241c-0.003 0-0.006 0-0.009 0-0.036 0-0.070-0.008-0.1-0.023l0.001 0.001c-0.033-0.020-0.061-0.046-0.082-0.077l-0.001-0.001-4.598-6.144q0.015 0.15 0.015 0.285v5.958h-0.45v-7.079h0.255c0.004-0 0.008-0 0.013-0 0.034 0 0.067 0.007 0.097 0.018l-0.002-0.001c0.034 0.020 0.061 0.046 0.082 0.077l0.001 0.001 4.588 6.128q-0.015-0.15-0.015-0.285v-5.938zM46.474 26.877c0.012-0 0.026-0 0.040-0 0.331 0 0.647 0.067 0.934 0.189l-0.016-0.006c0.282 0.121 0.521 0.297 0.711 0.515l0.002 0.002c0.193 0.227 0.345 0.496 0.438 0.792l0.004 0.016c0.097 0.303 0.153 0.652 0.153 1.013 0 0.016-0 0.032-0 0.047l0-0.002c0 0.014 0 0.030 0 0.046 0 0.36-0.056 0.708-0.16 1.034l0.007-0.024c-0.098 0.311-0.249 0.579-0.445 0.809l0.003-0.003c-0.192 0.22-0.43 0.395-0.7 0.51l-0.013 0.005c-0.284 0.114-0.613 0.18-0.958 0.18s-0.674-0.066-0.976-0.186l0.018 0.006c-0.283-0.12-0.522-0.295-0.714-0.513l-0.002-0.002c-0.195-0.226-0.347-0.495-0.441-0.79l-0.004-0.016c-0.097-0.302-0.153-0.649-0.153-1.010 0-0.016 0-0.032 0-0.048l-0 0.002c-0-0.013-0-0.029-0-0.045 0-0.362 0.056-0.71 0.16-1.038l-0.007 0.024c0.098-0.312 0.251-0.581 0.448-0.811l-0.002 0.003c0.194-0.22 0.432-0.396 0.703-0.513l0.013-0.005c0.271-0.116 0.587-0.183 0.918-0.183 0.014 0 0.028 0 0.042 0l-0.002-0zM46.474 31.625c0.012 0 0.027 0 0.041 0 0.266 0 0.52-0.056 0.749-0.158l-0.012 0.005c0.223-0.103 0.409-0.251 0.553-0.435l0.002-0.003c0.149-0.195 0.264-0.425 0.33-0.675l0.003-0.013c0.070-0.259 0.11-0.556 0.11-0.862 0-0.014-0-0.029-0-0.043l0 0.002c0-0.011 0-0.024 0-0.038 0-0.307-0.040-0.604-0.116-0.887l0.005 0.024c-0.069-0.265-0.184-0.497-0.336-0.698l0.004 0.005c-0.146-0.188-0.332-0.338-0.546-0.439l-0.009-0.004c-0.23-0.098-0.497-0.155-0.778-0.155s-0.548 0.057-0.791 0.16l0.013-0.005c-0.223 0.104-0.41 0.254-0.553 0.439l-0.003 0.003c-0.149 0.196-0.265 0.428-0.332 0.679l-0.003 0.014c-0.072 0.259-0.113 0.556-0.113 0.863 0 0.013 0 0.026 0 0.039l-0-0.002c-0 0.012-0 0.026-0 0.040 0 0.307 0.041 0.604 0.118 0.886l-0.005-0.024c0.071 0.263 0.186 0.493 0.339 0.693l-0.003-0.005c0.146 0.187 0.332 0.335 0.547 0.434l0.009 0.004c0.217 0.097 0.47 0.153 0.737 0.153 0.014 0 0.029-0 0.043-0l-0.002 0zM56.605 26.957l-1.661 4.978h-0.355q-0.085 0-0.115-0.105l-1.361-4.042q-0.025-0.075-0.045-0.15t-0.035-0.15c-0.020 0.116-0.046 0.217-0.079 0.314l0.004-0.014-1.381 4.042c-0.008 0.060-0.059 0.105-0.12 0.105h-0.34l-1.661-4.978h0.36c0.002-0 0.005-0 0.007-0 0.041 0 0.079 0.014 0.108 0.038l-0-0c0.027 0.021 0.048 0.049 0.060 0.081l0 0.001 1.256 3.927q0.030 0.115 0.055 0.223t0.040 0.213q0.030-0.105 0.060-0.213t0.070-0.223l1.331-3.962c0.014-0.063 0.069-0.11 0.135-0.11 0.002 0 0.003 0 0.005 0h0.195c0.002-0 0.005-0 0.008-0 0.067 0 0.123 0.047 0.138 0.109l0 0.001 1.321 3.962q0.035 0.115 0.065 0.22t0.055 0.21q0.020-0.105 0.043-0.21t0.058-0.22l1.265-3.927c0.013-0.036 0.035-0.066 0.065-0.087l0.001-0c0.028-0.020 0.063-0.033 0.102-0.033 0.001 0 0.002 0 0.004 0h-0z"></path>
</symbol>
<symbol id="icon-map-marker" viewBox="0 0 21 32">
<title>map-marker</title>
<path d="M16.002 10.668c0-0 0-0.001 0-0.001 0-2.946-2.388-5.333-5.333-5.333s-5.333 2.388-5.333 5.333c0 2.945 2.388 5.333 5.333 5.333v0c2.943-0.006 5.327-2.39 5.334-5.332v-0.001zM21.335 10.668c0 1.271-0.145 2.583-0.687 3.729l-7.585 16.125c-0.444 0.883-1.343 1.479-2.382 1.479-0.005 0-0.010 0-0.015-0h0.001c-0.008 0-0.017 0-0.026 0-1.029 0-1.919-0.597-2.342-1.463l-0.007-0.015-7.604-16.126c-0.541-1.145-0.687-2.459-0.687-3.728 0.083-5.828 4.827-10.52 10.667-10.52s10.584 4.692 10.667 10.512l0 0.008z"></path>
</symbol>
<symbol id="icon-mostly-cloudy" viewBox="0 0 35 32">
<title>mostly-cloudy</title>
<path d="M1.34 21.278h32.166c0.733-0.009 1.324-0.606 1.324-1.34s-0.591-1.331-1.323-1.34h-32.167c-0.733 0.009-1.324 0.606-1.324 1.34s0.591 1.331 1.323 1.34h0.001zM33.506 23.958h-32.166c-0.005-0-0.011-0-0.016-0-0.74 0-1.34 0.6-1.34 1.34s0.6 1.34 1.34 1.34c0.006 0 0.011-0 0.017-0h32.165c0.005 0 0.011 0 0.016 0 0.74 0 1.34-0.6 1.34-1.34s-0.6-1.34-1.34-1.34c-0.006 0-0.011 0-0.017 0h0.001zM33.506 29.319h-32.166c-0.733 0.009-1.324 0.606-1.324 1.34s0.591 1.331 1.323 1.34h32.167c0.733-0.009 1.324-0.606 1.324-1.34s-0.591-1.331-1.323-1.34h-0.001zM13.155 15.917c-0.028-0.028-0.063-0.046-0.091-0.074-1.453-1.456-2.352-3.467-2.352-5.687s0.899-4.231 2.352-5.687l-0 0c0.21-0.21 0.432-0.407 0.666-0.591l0.016-0.012c-0.014 0.201-0.021 0.435-0.021 0.671 0 2.938 1.196 5.596 3.129 7.514l0.001 0.001c1.918 1.932 4.576 3.128 7.513 3.128 0.237 0 0.473-0.008 0.707-0.023l-0.032 0.002c-0.235 0.273-0.479 0.521-0.738 0.752l-0.008 0.007h3.477c0.397-0.626 0.753-1.347 1.028-2.105l0.025-0.078c0.047-0.132 0.075-0.284 0.075-0.443 0-0.744-0.603-1.347-1.346-1.347-0.159 0-0.311 0.027-0.452 0.078l0.009-0.003c-0.808 0.301-1.742 0.476-2.716 0.476-4.413 0-7.991-3.577-7.991-7.99 0-0.975 0.175-1.909 0.494-2.773l-0.018 0.055c0.048-0.132 0.076-0.285 0.076-0.445 0-0.741-0.601-1.341-1.341-1.341-0.159 0-0.312 0.028-0.454 0.079l0.009-0.003c-4.203 1.487-7.159 5.427-7.159 10.057 0 2.149 0.637 4.149 1.732 5.822l-0.025-0.041h3.432z"></path>
</symbol>
<symbol id="icon-search" viewBox="0 0 32 32">
<title>search</title>
<path d="M31.12 31.12c-0.544 0.544-1.295 0.88-2.125 0.88s-1.581-0.337-2.125-0.881l-5.303-5.304c-2.152 1.4-4.785 2.232-7.612 2.232-7.784 0-14.094-6.31-14.094-14.094s6.31-14.094 14.094-14.094c7.784 0 14.094 6.31 14.094 14.094 0 2.827-0.832 5.46-2.266 7.666l0.033-0.055 5.304 5.304c0.544 0.544 0.88 1.295 0.88 2.125s-0.336 1.581-0.88 2.125v0zM14.024 4.006c-5.533 0-10.018 4.485-10.018 10.018s4.485 10.018 10.018 10.018c5.533 0 10.018-4.485 10.018-10.018v0c0-0 0-0 0-0 0-5.533-4.485-10.018-10.018-10.018-0 0-0 0-0 0v0z"></path>
</symbol>
<symbol id="icon-sunny" viewBox="0 0 32 32">
<title>sunny</title>
<path d="M16 4.923c0.68-0 1.23-0.551 1.231-1.231v-2.462c0-0.68-0.551-1.231-1.231-1.231s-1.231 0.551-1.231 1.231v2.462c0 0.68 0.551 1.23 1.231 1.231h0zM25.572 8.166l1.74-1.74c0.223-0.223 0.36-0.53 0.36-0.87 0-0.68-0.551-1.231-1.231-1.231-0.34 0-0.648 0.138-0.87 0.36l-1.74 1.74c-0.223 0.223-0.36 0.53-0.36 0.87 0 0.68 0.551 1.231 1.231 1.231 0.34 0 0.648-0.138 0.87-0.36v0zM1.231 17.231h2.462c0.68 0 1.231-0.551 1.231-1.231s-0.551-1.231-1.231-1.231h-2.462c-0.68 0-1.231 0.551-1.231 1.231s0.551 1.231 1.231 1.231v0zM27.077 16c0 0.68 0.551 1.231 1.231 1.231h2.462c0.68 0 1.231-0.551 1.231-1.231s-0.551-1.231-1.231-1.231h-2.462c-0.68 0-1.23 0.551-1.231 1.231v0zM6.426 8.166c0.223 0.223 0.53 0.36 0.87 0.36 0.68 0 1.231-0.551 1.231-1.231 0-0.34-0.138-0.647-0.36-0.87l-1.74-1.74c-0.223-0.223-0.53-0.36-0.87-0.36-0.68 0-1.231 0.551-1.231 1.231 0 0.34 0.138 0.647 0.36 0.87l1.74 1.74zM7.51 17.231h2.462c-0.079-0.37-0.124-0.795-0.124-1.231 0-3.398 2.755-6.153 6.153-6.153s6.153 2.755 6.153 6.153v0c0 0.001 0 0.002 0 0.003 0 0.435-0.046 0.858-0.133 1.267l0.007-0.040h2.462c0.068-0.363 0.113-0.787 0.125-1.219l0-0.012c0-4.758-3.857-8.615-8.615-8.615s-8.615 3.857-8.615 8.615v0c0.013 0.445 0.058 0.869 0.133 1.283l-0.008-0.052zM30.769 19.692h-29.538c-0.68 0-1.231 0.551-1.231 1.231s0.551 1.231 1.231 1.231h29.538c0.68 0 1.231-0.551 1.231-1.231s-0.551-1.231-1.231-1.231v0zM30.769 24.615h-29.538c-0.68 0-1.231 0.551-1.231 1.231s0.551 1.231 1.231 1.231h29.538c0.68 0 1.231-0.551 1.231-1.231s-0.551-1.231-1.231-1.231v0zM30.769 29.538h-29.538c-0.68 0-1.231 0.551-1.231 1.231s0.551 1.231 1.231 1.231h29.538c0.68 0 1.231-0.551 1.231-1.231s-0.551-1.231-1.231-1.231v0z"></path>
</symbol>
</defs>
</svg>
